<?xml version="1.0" encoding="UTF-8" standalone="no"?>
<!-- Generator: Adobe Illustrator 12.0.1, SVG Export Plug-In . SVG Version: 6.00 Build 51448)  -->

<svg
   xmlns:dc="http://purl.org/dc/elements/1.1/"
   xmlns:cc="http://creativecommons.org/ns#"
   xmlns:rdf="http://www.w3.org/1999/02/22-rdf-syntax-ns#"
   xmlns:svg="http://www.w3.org/2000/svg"
   xmlns="http://www.w3.org/2000/svg"
   xmlns:sodipodi="http://sodipodi.sourceforge.net/DTD/sodipodi-0.dtd"
   xmlns:inkscape="http://www.inkscape.org/namespaces/inkscape"
   version="1.1"
   id="Layer_1"
   width="511.99579"
   height="512"
   viewBox="0 0 511.99578 511.99998"
   overflow="visible"
   enable-background="new 0 0 312.811 313.066"
   xml:space="preserve"
   inkscape:version="0.48.1 r9760"
   sodipodi:docname="glotaran-icon.svg"
   inkscape:export-filename="/Users/jsg210/GlotaranSrc/Glotaran1/trunk/resources/graphics/glotaran-icon512.png"
   inkscape:export-xdpi="89.967865"
   inkscape:export-ydpi="89.967865"
   style="overflow:visible"><metadata
   id="metadata111"><rdf:RDF><cc:Work
       rdf:about=""><dc:format>image/svg+xml</dc:format><dc:type
         rdf:resource="http://purl.org/dc/dcmitype/StillImage" /><dc:title></dc:title></cc:Work></rdf:RDF></metadata><defs
   id="defs109"><linearGradient
     id="linearGradient3858"><stop
       style="stop-color:#a4fffc;stop-opacity:1;"
       offset="0"
       id="stop3860" /><stop
       style="stop-color:#ffffff;stop-opacity:0;"
       offset="1"
       id="stop3862" /></linearGradient></defs><sodipodi:namedview
   pagecolor="#ffffff"
   bordercolor="#666666"
   borderopacity="1"
   objecttolerance="10"
   gridtolerance="10"
   guidetolerance="10"
   inkscape:pageopacity="0"
   inkscape:pageshadow="2"
   inkscape:window-width="1259"
   inkscape:window-height="901"
   id="namedview107"
   showgrid="false"
   fit-margin-top="0"
   fit-margin-left="0"
   fit-margin-right="0"
   fit-margin-bottom="0"
   inkscape:zoom="0.9983453"
   inkscape:cx="183.32653"
   inkscape:cy="221.36249"
   inkscape:window-x="946"
   inkscape:window-y="233"
   inkscape:window-maximized="0"
   inkscape:current-layer="Layer_1" />
<path
   sodipodi:type="arc"
   style="opacity:0.81465520000000002;fill:#ffffff;fill-opacity:0.09777778;fill-rule:evenodd;stroke:none"
   id="path3088"
   sodipodi:cx="233.72736"
   sodipodi:cy="157.06908"
   sodipodi:rx="155.46086"
   sodipodi:ry="155.99693"
   d="m 389.18822,157.06908 a 155.46086,155.99693 0 1 1 -310.921725,0 155.46086,155.99693 0 1 1 310.921725,0 z"
   transform="matrix(1.2021394,0,0,1.1979202,-31.986591,60.818412)" /><g
   id="g3"
   transform="matrix(1.6367731,0,0,1.6353097,-0.00150692,0.22870153)">
	<g
   id="g5">
		<g
   id="g7">
			
				<radialGradient
   id="XMLID_3_"
   cx="156.4053"
   cy="146.6255"
   r="155.0128"
   gradientTransform="matrix(1,0,0,1.0116,0,8.0775)"
   gradientUnits="userSpaceOnUse">
				<stop
   offset="0.7022"
   style="stop-color:#ED1C24"
   id="stop10" />
				<stop
   offset="0.7095"
   style="stop-color:#EF4423"
   id="stop12" />
				<stop
   offset="0.7202"
   style="stop-color:#F26522"
   id="stop14" />
				<stop
   offset="0.7311"
   style="stop-color:#F47B20"
   id="stop16" />
				<stop
   offset="0.7421"
   style="stop-color:#F6891F"
   id="stop18" />
				<stop
   offset="0.753"
   style="stop-color:#F7911E"
   id="stop20" />
				<stop
   offset="0.764"
   style="stop-color:#F7931D"
   id="stop22" />
				<stop
   offset="0.809"
   style="stop-color:#FFC20E"
   id="stop24" />
				<stop
   offset="0.8203"
   style="stop-color:#F1C219"
   id="stop26" />
				<stop
   offset="0.842"
   style="stop-color:#D2C529"
   id="stop28" />
				<stop
   offset="0.8717"
   style="stop-color:#98C53C"
   id="stop30" />
				<stop
   offset="0.8764"
   style="stop-color:#8CC63F"
   id="stop32" />
				<stop
   offset="0.9326"
   style="stop-color:#00ADEF"
   id="stop34" />
				<stop
   offset="0.9337"
   style="stop-color:#00AAEC"
   id="stop36" />
				<stop
   offset="0.9576"
   style="stop-color:#007CC2"
   id="stop38" />
				<stop
   offset="0.9768"
   style="stop-color:#4A58A7"
   id="stop40" />
				<stop
   offset="0.9903"
   style="stop-color:#603B97"
   id="stop42" />
				<stop
   offset="0.997"
   style="stop-color:#662D91"
   id="stop44" />
			</radialGradient>
			<path
   d="m 262.563,122.449 -12.828,3.415 c 16.933,22.006 25.869,55.888 17.92,91.14 26.563,-23.999 45.045,-63.321 44.649,-107.793 l -13.058,3.477 C 290.975,80.742 271.981,51.872 246.135,31.827 220.444,11.568 187.813,0.449 155.296,0.5 v 38.376 c 49.031,-0.866 95.535,35.455 107.267,83.573 z m -139.703,139.666 3.49,-12.943 c -27.305,3.826 -60.779,-5.29 -86.982,-29.875 7.261,35.27 31.689,71.125 69.953,93.014 l 3.559,-13.18 c 31.483,8.727 65.693,6.521 95.775,-6.097 30.192,-12.374 56.027,-35.407 72.242,-63.925 l -32.855,-19.184 c -23.775,43.386 -78.127,65.968 -125.182,52.19 z M 71.225,71.452 80.558,80.98 C 90.93,55.141 115.473,30.37 149.626,19.709 115.795,8.437 72.889,11.91 35.017,34.485 l 9.506,9.71 C 21.31,67.415 6.094,98.485 1.858,131.153 c -4.5,32.632 2.302,66.788 18.603,95.244 L 53.31,207.213 C 28.054,164.692 35.896,105.785 71.225,71.452 z"
   id="path46"
   style="fill:url(#XMLID_3_)"
   inkscape:connector-curvature="0" />
		</g>
		<g
   id="g48">
			<path
   d="m 262.563,122.449 -12.828,3.415 c 16.933,22.006 25.869,55.888 17.92,91.14 26.563,-23.999 45.045,-63.321 44.649,-107.793 l -13.058,3.477 C 290.975,80.742 271.981,51.872 246.135,31.827 220.444,11.568 187.813,0.449 155.296,0.5 v 38.376 c 49.031,-0.866 95.535,35.455 107.267,83.573 z m -139.703,139.666 3.49,-12.943 c -27.305,3.826 -60.779,-5.29 -86.982,-29.875 7.261,35.27 31.689,71.125 69.953,93.014 l 3.559,-13.18 c 31.483,8.727 65.693,6.521 95.775,-6.097 30.192,-12.374 56.027,-35.407 72.242,-63.925 l -32.855,-19.184 c -23.775,43.386 -78.127,65.968 -125.182,52.19 z M 71.225,71.452 80.558,80.98 C 90.93,55.141 115.473,30.37 149.626,19.709 115.795,8.437 72.889,11.91 35.017,34.485 l 9.506,9.71 C 21.31,67.415 6.094,98.485 1.858,131.153 c -4.5,32.632 2.302,66.788 18.603,95.244 L 53.31,207.213 C 28.054,164.692 35.896,105.785 71.225,71.452 z"
   id="path50"
   inkscape:connector-curvature="0"
   style="fill:none;stroke:#000000" />
		</g>
	</g>
</g>
<g
   id="g52"
   transform="matrix(1.6367731,0,0,1.6353097,0.80859598,12.05579)">
	<g
   id="g54">
		<g
   id="g56">
			
				<radialGradient
   id="XMLID_4_"
   cx="155.9126"
   cy="128.5947"
   r="77.315804"
   gradientTransform="matrix(1,0,0,1.0116,0,8.0775)"
   gradientUnits="userSpaceOnUse">
				<stop
   offset="0"
   style="stop-color:#ED1C24"
   id="stop59" />
				<stop
   offset="0.0192"
   style="stop-color:#EF4423"
   id="stop61" />
				<stop
   offset="0.048"
   style="stop-color:#F26522"
   id="stop63" />
				<stop
   offset="0.077"
   style="stop-color:#F47B20"
   id="stop65" />
				<stop
   offset="0.1061"
   style="stop-color:#F6891F"
   id="stop67" />
				<stop
   offset="0.1352"
   style="stop-color:#F7911E"
   id="stop69" />
				<stop
   offset="0.1647"
   style="stop-color:#F7931D"
   id="stop71" />
				<stop
   offset="0.3054"
   style="stop-color:#FFC20E"
   id="stop73" />
				<stop
   offset="0.334"
   style="stop-color:#F1C219"
   id="stop75" />
				<stop
   offset="0.389"
   style="stop-color:#D2C529"
   id="stop77" />
				<stop
   offset="0.4642"
   style="stop-color:#98C53C"
   id="stop79" />
				<stop
   offset="0.476"
   style="stop-color:#8CC63F"
   id="stop81" />
				<stop
   offset="0.6257"
   style="stop-color:#00ADEF"
   id="stop83" />
				<stop
   offset="0.703"
   style="stop-color:#0090D5"
   id="stop85" />
				<stop
   offset="0.7715"
   style="stop-color:#007AC2"
   id="stop87" />
				<stop
   offset="0.8054"
   style="stop-color:#0071BC"
   id="stop89" />
				<stop
   offset="0.8168"
   style="stop-color:#006DB8"
   id="stop91" />
				<stop
   offset="0.8762"
   style="stop-color:#3657A7"
   id="stop93" />
				<stop
   offset="0.9281"
   style="stop-color:#55429A"
   id="stop95" />
				<stop
   offset="0.9702"
   style="stop-color:#623393"
   id="stop97" />
				<stop
   offset="0.997"
   style="stop-color:#662D91"
   id="stop99" />
			</radialGradient>
			<path
   d="m 246.648,194.241 -11.267,-1.145 c -0.324,0 -0.532,-0.126 -0.624,-0.379 l -33.112,-83.09 c -0.14,-0.212 -0.324,-0.338 -0.553,-0.381 h -3.527 c -0.185,0 -0.369,0.128 -0.553,0.381 l -21.687,50.104 -7.685,-0.581 c -0.461,-0.044 -0.689,-0.256 -0.689,-0.637 v -74.52 c 0,-0.424 0.183,-0.635 0.553,-0.635 h 22.951 c 0.46,0 0.691,0.169 0.691,0.507 l 2.835,14.727 c 0,0.338 0.229,0.507 0.69,0.507 h 5.254 c 0.461,0 0.692,-0.232 0.692,-0.696 V 78.027 c 0,-0.421 -0.231,-0.633 -0.692,-0.633 h -78.326 c -0.461,0 -0.692,0.212 -0.692,0.633 v 20.377 c 0,0.464 0.231,0.696 0.692,0.696 h 5.254 c 0.46,0 0.69,-0.169 0.69,-0.507 l 2.835,-14.727 c 0,-0.338 0.229,-0.507 0.691,-0.507 h 22.951 c 0.368,0 0.553,0.211 0.553,0.635 v 74.52 c 0,0.09 -0.015,0.169 -0.041,0.24 h -34.955 c -0.553,0 -0.83,0.257 -0.83,0.763 v 3.111 c 0,0.553 0.229,0.826 0.691,0.826 l 12.098,1.017 c 0.459,0 0.69,0.21 0.69,0.633 v 26.278 c -5.992,1.143 -10.716,1.714 -14.171,1.714 -12.213,0 -22.054,-4.401 -29.52,-13.202 -6.868,-8.125 -10.3,-17.943 -10.3,-29.453 0,-11.382 3.56,-20.387 10.681,-27.008 7.119,-6.621 16.878,-9.935 29.278,-9.935 2.533,0 7.855,0.827 15.968,2.477 0.416,0.17 0.624,0.38 0.624,0.634 l 2.834,14.6 c 0,0.339 0.229,0.506 0.69,0.506 h 5.531 c 0.461,0 0.692,-0.21 0.692,-0.634 v -19.678 c 0,-0.338 -0.231,-0.548 -0.692,-0.635 -2.535,-0.42 -4.378,-0.737 -5.531,-0.95 -7.834,-1.439 -14.217,-2.16 -19.148,-2.16 -9.448,0 -18.228,1.713 -26.339,5.143 -8.988,3.809 -15.947,9.278 -20.879,16.409 -4.931,7.131 -7.396,15.246 -7.396,24.343 0,13.499 4.953,24.482 14.862,32.945 9.679,8.292 21.938,12.44 36.778,12.44 8.573,0 17.789,-1.037 27.653,-3.111 0.461,-0.21 0.692,-0.445 0.692,-0.697 v -30.266 h 28.568 l -12.11,27.98 c -0.139,0.212 -0.323,0.339 -0.553,0.381 l -11.614,1.017 c -0.461,0 -0.692,0.233 -0.692,0.697 v 3.365 c 0,0.423 0.23,0.634 0.692,0.634 h 30.624 c 0.462,0 0.693,-0.211 0.693,-0.634 v -3.365 c 0,-0.423 -0.231,-0.654 -0.693,-0.697 l -10.645,-0.763 c -0.692,-0.042 -0.924,-0.338 -0.692,-0.891 l 11.2,-25.769 c 0.137,-0.21 0.322,-0.339 0.553,-1.406 H 210.7 c 0.184,1.024 0.368,1.153 0.553,1.406 l 10.508,25.517 c 0.092,0.254 0.092,0.467 0,0.635 -0.092,0.17 -0.276,0.254 -0.553,0.254 l -11.061,1.017 c -0.462,0 -0.691,0.233 -0.691,0.697 v 3.365 c 0,0.423 0.229,0.634 0.691,0.634 h 36.363 c 0.508,0 0.762,-0.211 0.762,-0.634 v -3.365 c 0,-0.465 -0.209,-0.698 -0.624,-0.698 z m -38.505,-34.287 h -25.577 c -0.693,1.025 12.72,-30.967 12.72,-30.967 0.092,-0.252 0.274,-0.381 0.553,-0.381 0.184,0 0.368,0.129 0.554,0.381 -0.001,-0.001 12.485,31.992 11.75,30.967 z"
   id="path101"
   style="fill:url(#XMLID_4_)"
   inkscape:connector-curvature="0" />
		</g>
		<g
   id="g103">
			<path
   d="m 246.648,194.241 -11.267,-1.145 c -0.324,0 -0.532,-0.126 -0.624,-0.379 l -33.112,-83.09 c -0.14,-0.212 -0.324,-0.338 -0.553,-0.381 h -3.527 c -0.185,0 -0.369,0.128 -0.553,0.381 l -21.687,50.104 -7.685,-0.581 c -0.461,-0.044 -0.689,-0.256 -0.689,-0.637 v -74.52 c 0,-0.424 0.183,-0.635 0.553,-0.635 h 22.951 c 0.46,0 0.691,0.169 0.691,0.507 l 2.835,14.727 c 0,0.338 0.229,0.507 0.69,0.507 h 5.254 c 0.461,0 0.692,-0.232 0.692,-0.696 V 78.027 c 0,-0.421 -0.231,-0.633 -0.692,-0.633 h -78.326 c -0.461,0 -0.692,0.212 -0.692,0.633 v 20.377 c 0,0.464 0.231,0.696 0.692,0.696 h 5.254 c 0.46,0 0.69,-0.169 0.69,-0.507 l 2.835,-14.727 c 0,-0.338 0.229,-0.507 0.691,-0.507 h 22.951 c 0.368,0 0.553,0.211 0.553,0.635 v 74.52 c 0,0.09 -0.015,0.169 -0.041,0.24 h -34.955 c -0.553,0 -0.83,0.257 -0.83,0.763 v 3.111 c 0,0.553 0.229,0.826 0.691,0.826 l 12.098,1.017 c 0.459,0 0.69,0.21 0.69,0.633 v 26.278 c -5.992,1.143 -10.716,1.714 -14.171,1.714 -12.213,0 -22.054,-4.401 -29.52,-13.202 -6.868,-8.125 -10.3,-17.943 -10.3,-29.453 0,-11.382 3.56,-20.387 10.681,-27.008 7.119,-6.621 16.878,-9.935 29.278,-9.935 2.533,0 7.855,0.827 15.968,2.477 0.416,0.17 0.624,0.38 0.624,0.634 l 2.834,14.6 c 0,0.339 0.229,0.506 0.69,0.506 h 5.531 c 0.461,0 0.692,-0.21 0.692,-0.634 v -19.678 c 0,-0.338 -0.231,-0.548 -0.692,-0.635 -2.535,-0.42 -4.378,-0.737 -5.531,-0.95 -7.834,-1.439 -14.217,-2.16 -19.148,-2.16 -9.448,0 -18.228,1.713 -26.339,5.143 -8.988,3.809 -15.947,9.278 -20.879,16.409 -4.931,7.131 -7.396,15.246 -7.396,24.343 0,13.499 4.953,24.482 14.862,32.945 9.679,8.292 21.938,12.44 36.778,12.44 8.573,0 17.789,-1.037 27.653,-3.111 0.461,-0.21 0.692,-0.445 0.692,-0.697 v -30.266 h 28.568 l -12.11,27.98 c -0.139,0.212 -0.323,0.339 -0.553,0.381 l -11.614,1.017 c -0.461,0 -0.692,0.233 -0.692,0.697 v 3.365 c 0,0.423 0.23,0.634 0.692,0.634 h 30.624 c 0.462,0 0.693,-0.211 0.693,-0.634 v -3.365 c 0,-0.423 -0.231,-0.654 -0.693,-0.697 l -10.645,-0.763 c -0.692,-0.042 -0.924,-0.338 -0.692,-0.891 l 11.2,-25.769 c 0.137,-0.21 0.322,-0.339 0.553,-1.406 H 210.7 c 0.184,1.024 0.368,1.153 0.553,1.406 l 10.508,25.517 c 0.092,0.254 0.092,0.467 0,0.635 -0.092,0.17 -0.276,0.254 -0.553,0.254 l -11.061,1.017 c -0.462,0 -0.691,0.233 -0.691,0.697 v 3.365 c 0,0.423 0.229,0.634 0.691,0.634 h 36.363 c 0.508,0 0.762,-0.211 0.762,-0.634 v -3.365 c 0,-0.465 -0.209,-0.698 -0.624,-0.698 z m -38.505,-34.287 h -25.577 c -0.693,1.025 12.72,-30.967 12.72,-30.967 0.092,-0.252 0.274,-0.381 0.553,-0.381 0.184,0 0.368,0.129 0.554,0.381 -0.001,-0.001 12.485,31.992 11.75,30.967 z"
   id="path105"
   inkscape:connector-curvature="0"
   style="fill:none;stroke:#000000" />
		</g>
	</g>
</g>
</svg>