<?xml version="1.0" encoding="utf-8"?>
<!-- Generator: Adobe Illustrator 12.0.1, SVG Export Plug-In . SVG Version: 6.00 Build 51448)  -->
<!DOCTYPE svg PUBLIC "-//W3C//DTD SVG 1.1//EN" "http://www.w3.org/Graphics/SVG/1.1/DTD/svg11.dtd" [
	<!ENTITY ns_svg "http://www.w3.org/2000/svg">
	<!ENTITY ns_xlink "http://www.w3.org/1999/xlink">
]>
<svg  version="1.1" id="Layer_1" xmlns="&ns_svg;" xmlns:xlink="&ns_xlink;" width="312.811" height="313.066"
	 viewBox="0 0 312.811 313.066" overflow="visible" enable-background="new 0 0 312.811 313.066" xml:space="preserve">
<g>
	<g>
		<g>
			
				<radialGradient id="XMLID_6_" cx="156.4053" cy="146.6255" r="155.0128" gradientTransform="matrix(1 0 0 1.0116 0 8.0775)" gradientUnits="userSpaceOnUse">
				<stop  offset="0.7022" style="stop-color:#ED1C24"/>
				<stop  offset="0.7095" style="stop-color:#EF4423"/>
				<stop  offset="0.7202" style="stop-color:#F26522"/>
				<stop  offset="0.7311" style="stop-color:#F47B20"/>
				<stop  offset="0.7421" style="stop-color:#F6891F"/>
				<stop  offset="0.753" style="stop-color:#F7911E"/>
				<stop  offset="0.764" style="stop-color:#F7931D"/>
				<stop  offset="0.809" style="stop-color:#FFC20E"/>
				<stop  offset="0.8203" style="stop-color:#F1C219"/>
				<stop  offset="0.842" style="stop-color:#D2C529"/>
				<stop  offset="0.8717" style="stop-color:#98C53C"/>
				<stop  offset="0.8764" style="stop-color:#8CC63F"/>
				<stop  offset="0.9326" style="stop-color:#00ADEF"/>
				<stop  offset="0.9337" style="stop-color:#00AAEC"/>
				<stop  offset="0.9576" style="stop-color:#007CC2"/>
				<stop  offset="0.9768" style="stop-color:#4A58A7"/>
				<stop  offset="0.9903" style="stop-color:#603B97"/>
				<stop  offset="0.997" style="stop-color:#662D91"/>
			</radialGradient>
			<path fill="url(#XMLID_6_)" d="M262.563,122.449l-12.828,3.415c16.933,22.006,25.869,55.888,17.92,91.14
				c26.563-23.999,45.045-63.321,44.649-107.793l-13.058,3.477c-8.271-31.946-27.265-60.816-53.111-80.861
				C220.444,11.568,187.813,0.449,155.296,0.5v38.376C204.327,38.01,250.831,74.331,262.563,122.449z M122.86,262.115l3.49-12.943
				c-27.305,3.826-60.779-5.29-86.982-29.875c7.261,35.27,31.689,71.125,69.953,93.014l3.559-13.18
				c31.483,8.727,65.693,6.521,95.775-6.097c30.192-12.374,56.027-35.407,72.242-63.925l-32.855-19.184
				C224.267,253.311,169.915,275.893,122.86,262.115z M71.225,71.452l9.333,9.528c10.372-25.839,34.915-50.61,69.068-61.271
				C115.795,8.437,72.889,11.91,35.017,34.485l9.506,9.71C21.31,67.415,6.094,98.485,1.858,131.153
				c-4.5,32.632,2.302,66.788,18.603,95.244l32.849-19.184C28.054,164.692,35.896,105.785,71.225,71.452z"/>
		</g>
		<g>
			<path fill="none" stroke="#000000" d="M262.563,122.449l-12.828,3.415c16.933,22.006,25.869,55.888,17.92,91.14
				c26.563-23.999,45.045-63.321,44.649-107.793l-13.058,3.477c-8.271-31.946-27.265-60.816-53.111-80.861
				C220.444,11.568,187.813,0.449,155.296,0.5v38.376C204.327,38.01,250.831,74.331,262.563,122.449z M122.86,262.115l3.49-12.943
				c-27.305,3.826-60.779-5.29-86.982-29.875c7.261,35.27,31.689,71.125,69.953,93.014l3.559-13.18
				c31.483,8.727,65.693,6.521,95.775-6.097c30.192-12.374,56.027-35.407,72.242-63.925l-32.855-19.184
				C224.267,253.311,169.915,275.893,122.86,262.115z M71.225,71.452l9.333,9.528c10.372-25.839,34.915-50.61,69.068-61.271
				C115.795,8.437,72.889,11.91,35.017,34.485l9.506,9.71C21.31,67.415,6.094,98.485,1.858,131.153
				c-4.5,32.632,2.302,66.788,18.603,95.244l32.849-19.184C28.054,164.692,35.896,105.785,71.225,71.452z"/>
		</g>
	</g>
</g>
<g>
	<g>
		<g>
			<path d="M258.552,201.296l-13.007-1.321c-0.375,0-0.615-0.146-0.721-0.438l-38.229-95.929c-0.161-0.245-0.374-0.39-0.638-0.44
				h-4.072c-0.214,0-0.427,0.148-0.639,0.44l-25.037,57.847l-8.872-0.671c-0.533-0.051-0.797-0.295-0.797-0.735V74.015
				c0-0.489,0.211-0.733,0.639-0.733h26.498c0.53,0,0.798,0.196,0.798,0.585l3.273,17.003c0,0.391,0.265,0.586,0.797,0.586h6.065
				c0.532,0,0.8-0.269,0.8-0.804V67.125c0-0.486-0.268-0.731-0.8-0.731h-90.429c-0.532,0-0.799,0.245-0.799,0.731v23.526
				c0,0.536,0.267,0.804,0.799,0.804h6.066c0.531,0,0.797-0.195,0.797-0.586l3.273-17.003c0-0.39,0.265-0.585,0.798-0.585h26.498
				c0.425,0,0.639,0.244,0.639,0.733v86.035c0,0.104-0.018,0.195-0.048,0.277h-40.356c-0.638,0-0.958,0.297-0.958,0.881v3.592
				c0,0.639,0.264,0.954,0.797,0.954l13.968,1.174c0.53,0,0.797,0.242,0.797,0.73v30.339c-6.917,1.319-12.372,1.979-16.361,1.979
				c-14.101,0-25.462-5.081-34.082-15.242c-7.929-9.38-11.892-20.716-11.892-34.004c0-13.141,4.11-23.537,12.331-31.182
				c8.219-7.644,19.486-11.47,33.803-11.47c2.924,0,9.069,0.955,18.435,2.86c0.479,0.196,0.72,0.438,0.72,0.731l3.272,16.856
				c0,0.391,0.265,0.584,0.797,0.584h6.385c0.533,0,0.799-0.242,0.799-0.732v-22.719c0-0.391-0.267-0.633-0.799-0.733
				c-2.926-0.485-5.055-0.851-6.385-1.097c-9.045-1.662-16.415-2.494-22.107-2.494c-10.908,0-21.045,1.979-30.409,5.938
				c-10.377,4.397-18.412,10.712-24.105,18.944c-5.693,8.233-8.538,17.602-8.538,28.105c0,15.584,5.718,28.265,17.158,38.036
				c11.174,9.573,25.328,14.363,42.461,14.363c9.897,0,20.538-1.198,31.926-3.593c0.533-0.242,0.799-0.514,0.799-0.805v-34.942
				h32.982l-13.981,32.304c-0.16,0.245-0.373,0.392-0.639,0.44l-13.408,1.173c-0.533,0-0.799,0.27-0.799,0.806v3.885
				c0,0.488,0.266,0.732,0.799,0.732h35.355c0.533,0,0.801-0.244,0.801-0.732v-3.885c0-0.488-0.268-0.756-0.801-0.806l-12.289-0.88
				c-0.799-0.049-1.066-0.391-0.799-1.028l12.931-29.751c0.157-0.242,0.372-0.391,0.638-1.623h35.597
				c0.212,1.183,0.425,1.331,0.638,1.623l12.132,29.46c0.106,0.293,0.106,0.539,0,0.732c-0.105,0.196-0.319,0.294-0.638,0.294
				l-12.77,1.173c-0.534,0-0.799,0.27-0.799,0.806v3.885c0,0.488,0.265,0.732,0.799,0.732h41.982c0.586,0,0.879-0.244,0.879-0.732
				v-3.885C259.272,201.566,259.031,201.296,258.552,201.296z M214.096,161.711h-29.529c-0.801,1.184,14.686-35.752,14.686-35.752
				c0.105-0.292,0.316-0.44,0.638-0.44c0.212,0,0.425,0.149,0.64,0.44C200.529,125.959,214.945,162.895,214.096,161.711z"/>
		</g>
		<g>
			<path fill="none" stroke="#000000" stroke-width="3" d="M258.552,201.296l-13.007-1.321c-0.375,0-0.615-0.146-0.721-0.438
				l-38.229-95.929c-0.161-0.245-0.374-0.39-0.638-0.44h-4.072c-0.214,0-0.427,0.148-0.639,0.44l-25.037,57.847l-8.872-0.671
				c-0.533-0.051-0.797-0.295-0.797-0.735V74.015c0-0.489,0.211-0.733,0.639-0.733h26.498c0.53,0,0.798,0.196,0.798,0.585
				l3.273,17.003c0,0.391,0.265,0.586,0.797,0.586h6.065c0.532,0,0.8-0.269,0.8-0.804V67.125c0-0.486-0.268-0.731-0.8-0.731h-90.429
				c-0.532,0-0.799,0.245-0.799,0.731v23.526c0,0.536,0.267,0.804,0.799,0.804h6.066c0.531,0,0.797-0.195,0.797-0.586l3.273-17.003
				c0-0.39,0.265-0.585,0.798-0.585h26.498c0.425,0,0.639,0.244,0.639,0.733v86.035c0,0.104-0.018,0.195-0.048,0.277h-40.356
				c-0.638,0-0.958,0.297-0.958,0.881v3.592c0,0.639,0.264,0.954,0.797,0.954l13.968,1.174c0.53,0,0.797,0.242,0.797,0.73v30.339
				c-6.917,1.319-12.372,1.979-16.361,1.979c-14.101,0-25.462-5.081-34.082-15.242c-7.929-9.38-11.892-20.716-11.892-34.004
				c0-13.141,4.11-23.537,12.331-31.182c8.219-7.644,19.486-11.47,33.803-11.47c2.924,0,9.069,0.955,18.435,2.86
				c0.479,0.196,0.72,0.438,0.72,0.731l3.272,16.856c0,0.391,0.265,0.584,0.797,0.584h6.385c0.533,0,0.799-0.242,0.799-0.732
				v-22.719c0-0.391-0.267-0.633-0.799-0.733c-2.926-0.485-5.055-0.851-6.385-1.097c-9.045-1.662-16.415-2.494-22.107-2.494
				c-10.908,0-21.045,1.979-30.409,5.938c-10.377,4.397-18.412,10.712-24.105,18.944c-5.693,8.233-8.538,17.602-8.538,28.105
				c0,15.584,5.718,28.265,17.158,38.036c11.174,9.573,25.328,14.363,42.461,14.363c9.897,0,20.538-1.198,31.926-3.593
				c0.533-0.242,0.799-0.514,0.799-0.805v-34.942h32.982l-13.981,32.304c-0.16,0.245-0.373,0.392-0.639,0.44l-13.408,1.173
				c-0.533,0-0.799,0.27-0.799,0.806v3.885c0,0.488,0.266,0.732,0.799,0.732h35.355c0.533,0,0.801-0.244,0.801-0.732v-3.885
				c0-0.488-0.268-0.756-0.801-0.806l-12.289-0.88c-0.799-0.049-1.066-0.391-0.799-1.028l12.931-29.751
				c0.157-0.242,0.372-0.391,0.638-1.623h35.597c0.212,1.183,0.425,1.331,0.638,1.623l12.132,29.46c0.106,0.293,0.106,0.539,0,0.732
				c-0.105,0.196-0.319,0.294-0.638,0.294l-12.77,1.173c-0.534,0-0.799,0.27-0.799,0.806v3.885c0,0.488,0.265,0.732,0.799,0.732
				h41.982c0.586,0,0.879-0.244,0.879-0.732v-3.885C259.272,201.566,259.031,201.296,258.552,201.296z M214.096,161.711h-29.529
				c-0.801,1.184,14.686-35.752,14.686-35.752c0.105-0.292,0.316-0.44,0.638-0.44c0.212,0,0.425,0.149,0.64,0.44
				C200.529,125.959,214.945,162.895,214.096,161.711z"/>
		</g>
	</g>
</g>
</svg>
