<?xml version="1.0" encoding="utf-8"?>
<!-- Generator: Adobe Illustrator 12.0.1, SVG Export Plug-In . SVG Version: 6.00 Build 51448)  -->
<!DOCTYPE svg PUBLIC "-//W3C//DTD SVG 1.1//EN" "http://www.w3.org/Graphics/SVG/1.1/DTD/svg11.dtd" [
	<!ENTITY ns_svg "http://www.w3.org/2000/svg">
	<!ENTITY ns_xlink "http://www.w3.org/1999/xlink">
]>
<svg  version="1.1" id="Layer_1" xmlns="&ns_svg;" xmlns:xlink="&ns_xlink;" width="312.811" height="313.066"
	 viewBox="0 0 312.811 313.066" overflow="visible" enable-background="new 0 0 312.811 313.066" xml:space="preserve">
<g>
	<g>
		<g>
			
				<radialGradient id="XMLID_3_" cx="156.4053" cy="146.6255" r="155.0128" gradientTransform="matrix(1 0 0 1.0116 0 8.0775)" gradientUnits="userSpaceOnUse">
				<stop  offset="0.7022" style="stop-color:#ED1C24"/>
				<stop  offset="0.7095" style="stop-color:#EF4423"/>
				<stop  offset="0.7202" style="stop-color:#F26522"/>
				<stop  offset="0.7311" style="stop-color:#F47B20"/>
				<stop  offset="0.7421" style="stop-color:#F6891F"/>
				<stop  offset="0.753" style="stop-color:#F7911E"/>
				<stop  offset="0.764" style="stop-color:#F7931D"/>
				<stop  offset="0.809" style="stop-color:#FFC20E"/>
				<stop  offset="0.8203" style="stop-color:#F1C219"/>
				<stop  offset="0.842" style="stop-color:#D2C529"/>
				<stop  offset="0.8717" style="stop-color:#98C53C"/>
				<stop  offset="0.8764" style="stop-color:#8CC63F"/>
				<stop  offset="0.9326" style="stop-color:#00ADEF"/>
				<stop  offset="0.9337" style="stop-color:#00AAEC"/>
				<stop  offset="0.9576" style="stop-color:#007CC2"/>
				<stop  offset="0.9768" style="stop-color:#4A58A7"/>
				<stop  offset="0.9903" style="stop-color:#603B97"/>
				<stop  offset="0.997" style="stop-color:#662D91"/>
			</radialGradient>
			<path fill="url(#XMLID_3_)" d="M262.563,122.449l-12.828,3.415c16.933,22.006,25.869,55.888,17.92,91.14
				c26.563-23.999,45.045-63.321,44.649-107.793l-13.058,3.477c-8.271-31.946-27.265-60.816-53.111-80.861
				C220.444,11.568,187.813,0.449,155.296,0.5v38.376C204.327,38.01,250.831,74.331,262.563,122.449z M122.86,262.115l3.49-12.943
				c-27.305,3.826-60.779-5.29-86.982-29.875c7.261,35.27,31.689,71.125,69.953,93.014l3.559-13.18
				c31.483,8.727,65.693,6.521,95.775-6.097c30.192-12.374,56.027-35.407,72.242-63.925l-32.855-19.184
				C224.267,253.311,169.915,275.893,122.86,262.115z M71.225,71.452l9.333,9.528c10.372-25.839,34.915-50.61,69.068-61.271
				C115.795,8.437,72.889,11.91,35.017,34.485l9.506,9.71C21.31,67.415,6.094,98.485,1.858,131.153
				c-4.5,32.632,2.302,66.788,18.603,95.244l32.849-19.184C28.054,164.692,35.896,105.785,71.225,71.452z"/>
		</g>
		<g>
			<path fill="none" stroke="#000000" d="M262.563,122.449l-12.828,3.415c16.933,22.006,25.869,55.888,17.92,91.14
				c26.563-23.999,45.045-63.321,44.649-107.793l-13.058,3.477c-8.271-31.946-27.265-60.816-53.111-80.861
				C220.444,11.568,187.813,0.449,155.296,0.5v38.376C204.327,38.01,250.831,74.331,262.563,122.449z M122.86,262.115l3.49-12.943
				c-27.305,3.826-60.779-5.29-86.982-29.875c7.261,35.27,31.689,71.125,69.953,93.014l3.559-13.18
				c31.483,8.727,65.693,6.521,95.775-6.097c30.192-12.374,56.027-35.407,72.242-63.925l-32.855-19.184
				C224.267,253.311,169.915,275.893,122.86,262.115z M71.225,71.452l9.333,9.528c10.372-25.839,34.915-50.61,69.068-61.271
				C115.795,8.437,72.889,11.91,35.017,34.485l9.506,9.71C21.31,67.415,6.094,98.485,1.858,131.153
				c-4.5,32.632,2.302,66.788,18.603,95.244l32.849-19.184C28.054,164.692,35.896,105.785,71.225,71.452z"/>
		</g>
	</g>
</g>
<g>
	<g>
		<g>
			
				<radialGradient id="XMLID_4_" cx="155.9126" cy="128.5947" r="77.3158" gradientTransform="matrix(1 0 0 1.0116 0 8.0775)" gradientUnits="userSpaceOnUse">
				<stop  offset="0" style="stop-color:#ED1C24"/>
				<stop  offset="0.0192" style="stop-color:#EF4423"/>
				<stop  offset="0.048" style="stop-color:#F26522"/>
				<stop  offset="0.077" style="stop-color:#F47B20"/>
				<stop  offset="0.1061" style="stop-color:#F6891F"/>
				<stop  offset="0.1352" style="stop-color:#F7911E"/>
				<stop  offset="0.1647" style="stop-color:#F7931D"/>
				<stop  offset="0.3054" style="stop-color:#FFC20E"/>
				<stop  offset="0.334" style="stop-color:#F1C219"/>
				<stop  offset="0.389" style="stop-color:#D2C529"/>
				<stop  offset="0.4642" style="stop-color:#98C53C"/>
				<stop  offset="0.476" style="stop-color:#8CC63F"/>
				<stop  offset="0.6257" style="stop-color:#00ADEF"/>
				<stop  offset="0.703" style="stop-color:#0090D5"/>
				<stop  offset="0.7715" style="stop-color:#007AC2"/>
				<stop  offset="0.8054" style="stop-color:#0071BC"/>
				<stop  offset="0.8168" style="stop-color:#006DB8"/>
				<stop  offset="0.8762" style="stop-color:#3657A7"/>
				<stop  offset="0.9281" style="stop-color:#55429A"/>
				<stop  offset="0.9702" style="stop-color:#623393"/>
				<stop  offset="0.997" style="stop-color:#662D91"/>
			</radialGradient>
			<path fill="url(#XMLID_4_)" d="M246.648,194.241l-11.267-1.145c-0.324,0-0.532-0.126-0.624-0.379l-33.112-83.09
				c-0.14-0.212-0.324-0.338-0.553-0.381h-3.527c-0.185,0-0.369,0.128-0.553,0.381l-21.687,50.104l-7.685-0.581
				c-0.461-0.044-0.689-0.256-0.689-0.637v-74.52c0-0.424,0.183-0.635,0.553-0.635h22.951c0.46,0,0.691,0.169,0.691,0.507
				l2.835,14.727c0,0.338,0.229,0.507,0.69,0.507h5.254c0.461,0,0.692-0.232,0.692-0.696V78.027c0-0.421-0.231-0.633-0.692-0.633
				h-78.326c-0.461,0-0.692,0.212-0.692,0.633v20.377c0,0.464,0.231,0.696,0.692,0.696h5.254c0.46,0,0.69-0.169,0.69-0.507
				l2.835-14.727c0-0.338,0.229-0.507,0.691-0.507h22.951c0.368,0,0.553,0.211,0.553,0.635v74.52c0,0.09-0.015,0.169-0.041,0.24
				h-34.955c-0.553,0-0.83,0.257-0.83,0.763v3.111c0,0.553,0.229,0.826,0.691,0.826l12.098,1.017c0.459,0,0.69,0.21,0.69,0.633
				v26.278c-5.992,1.143-10.716,1.714-14.171,1.714c-12.213,0-22.054-4.401-29.52-13.202c-6.868-8.125-10.3-17.943-10.3-29.453
				c0-11.382,3.56-20.387,10.681-27.008c7.119-6.621,16.878-9.935,29.278-9.935c2.533,0,7.855,0.827,15.968,2.477
				c0.416,0.17,0.624,0.38,0.624,0.634l2.834,14.6c0,0.339,0.229,0.506,0.69,0.506h5.531c0.461,0,0.692-0.21,0.692-0.634v-19.678
				c0-0.338-0.231-0.548-0.692-0.635c-2.535-0.42-4.378-0.737-5.531-0.95c-7.834-1.439-14.217-2.16-19.148-2.16
				c-9.448,0-18.228,1.713-26.339,5.143c-8.988,3.809-15.947,9.278-20.879,16.409c-4.931,7.131-7.396,15.246-7.396,24.343
				c0,13.499,4.953,24.482,14.862,32.945c9.679,8.292,21.938,12.44,36.778,12.44c8.573,0,17.789-1.037,27.653-3.111
				c0.461-0.21,0.692-0.445,0.692-0.697v-30.266h28.568l-12.11,27.98c-0.139,0.212-0.323,0.339-0.553,0.381l-11.614,1.017
				c-0.461,0-0.692,0.233-0.692,0.697v3.365c0,0.423,0.23,0.634,0.692,0.634h30.624c0.462,0,0.693-0.211,0.693-0.634v-3.365
				c0-0.423-0.231-0.654-0.693-0.697l-10.645-0.763c-0.692-0.042-0.924-0.338-0.692-0.891l11.2-25.769
				c0.137-0.21,0.322-0.339,0.553-1.406H210.7c0.184,1.024,0.368,1.153,0.553,1.406l10.508,25.517c0.092,0.254,0.092,0.467,0,0.635
				c-0.092,0.17-0.276,0.254-0.553,0.254l-11.061,1.017c-0.462,0-0.691,0.233-0.691,0.697v3.365c0,0.423,0.229,0.634,0.691,0.634
				h36.363c0.508,0,0.762-0.211,0.762-0.634v-3.365C247.272,194.474,247.063,194.241,246.648,194.241z M208.143,159.954h-25.577
				c-0.693,1.025,12.72-30.967,12.72-30.967c0.092-0.252,0.274-0.381,0.553-0.381c0.184,0,0.368,0.129,0.554,0.381
				C196.392,128.986,208.878,160.979,208.143,159.954z"/>
		</g>
		<g>
			<path fill="none" stroke="#000000" d="M246.648,194.241l-11.267-1.145c-0.324,0-0.532-0.126-0.624-0.379l-33.112-83.09
				c-0.14-0.212-0.324-0.338-0.553-0.381h-3.527c-0.185,0-0.369,0.128-0.553,0.381l-21.687,50.104l-7.685-0.581
				c-0.461-0.044-0.689-0.256-0.689-0.637v-74.52c0-0.424,0.183-0.635,0.553-0.635h22.951c0.46,0,0.691,0.169,0.691,0.507
				l2.835,14.727c0,0.338,0.229,0.507,0.69,0.507h5.254c0.461,0,0.692-0.232,0.692-0.696V78.027c0-0.421-0.231-0.633-0.692-0.633
				h-78.326c-0.461,0-0.692,0.212-0.692,0.633v20.377c0,0.464,0.231,0.696,0.692,0.696h5.254c0.46,0,0.69-0.169,0.69-0.507
				l2.835-14.727c0-0.338,0.229-0.507,0.691-0.507h22.951c0.368,0,0.553,0.211,0.553,0.635v74.52c0,0.09-0.015,0.169-0.041,0.24
				h-34.955c-0.553,0-0.83,0.257-0.83,0.763v3.111c0,0.553,0.229,0.826,0.691,0.826l12.098,1.017c0.459,0,0.69,0.21,0.69,0.633
				v26.278c-5.992,1.143-10.716,1.714-14.171,1.714c-12.213,0-22.054-4.401-29.52-13.202c-6.868-8.125-10.3-17.943-10.3-29.453
				c0-11.382,3.56-20.387,10.681-27.008c7.119-6.621,16.878-9.935,29.278-9.935c2.533,0,7.855,0.827,15.968,2.477
				c0.416,0.17,0.624,0.38,0.624,0.634l2.834,14.6c0,0.339,0.229,0.506,0.69,0.506h5.531c0.461,0,0.692-0.21,0.692-0.634v-19.678
				c0-0.338-0.231-0.548-0.692-0.635c-2.535-0.42-4.378-0.737-5.531-0.95c-7.834-1.439-14.217-2.16-19.148-2.16
				c-9.448,0-18.228,1.713-26.339,5.143c-8.988,3.809-15.947,9.278-20.879,16.409c-4.931,7.131-7.396,15.246-7.396,24.343
				c0,13.499,4.953,24.482,14.862,32.945c9.679,8.292,21.938,12.44,36.778,12.44c8.573,0,17.789-1.037,27.653-3.111
				c0.461-0.21,0.692-0.445,0.692-0.697v-30.266h28.568l-12.11,27.98c-0.139,0.212-0.323,0.339-0.553,0.381l-11.614,1.017
				c-0.461,0-0.692,0.233-0.692,0.697v3.365c0,0.423,0.23,0.634,0.692,0.634h30.624c0.462,0,0.693-0.211,0.693-0.634v-3.365
				c0-0.423-0.231-0.654-0.693-0.697l-10.645-0.763c-0.692-0.042-0.924-0.338-0.692-0.891l11.2-25.769
				c0.137-0.21,0.322-0.339,0.553-1.406H210.7c0.184,1.024,0.368,1.153,0.553,1.406l10.508,25.517c0.092,0.254,0.092,0.467,0,0.635
				c-0.092,0.17-0.276,0.254-0.553,0.254l-11.061,1.017c-0.462,0-0.691,0.233-0.691,0.697v3.365c0,0.423,0.229,0.634,0.691,0.634
				h36.363c0.508,0,0.762-0.211,0.762-0.634v-3.365C247.272,194.474,247.063,194.241,246.648,194.241z M208.143,159.954h-25.577
				c-0.693,1.025,12.72-30.967,12.72-30.967c0.092-0.252,0.274-0.381,0.553-0.381c0.184,0,0.368,0.129,0.554,0.381
				C196.392,128.986,208.878,160.979,208.143,159.954z"/>
		</g>
	</g>
</g>
</svg>
