<?xml version="1.0" encoding="utf-8"?>
<!-- Generator: Adobe Illustrator 12.0.1, SVG Export Plug-In . SVG Version: 6.00 Build 51448)  -->
<!DOCTYPE svg PUBLIC "-//W3C//DTD SVG 1.1//EN" "http://www.w3.org/Graphics/SVG/1.1/DTD/svg11.dtd" [
	<!ENTITY ns_svg "http://www.w3.org/2000/svg">
	<!ENTITY ns_xlink "http://www.w3.org/1999/xlink">
]>
<svg  version="1.1" id="Layer_1" xmlns="&ns_svg;" xmlns:xlink="&ns_xlink;" width="308.753" height="305.473"
	 viewBox="0 0 308.753 305.473" overflow="visible" enable-background="new 0 0 308.753 305.473" xml:space="preserve">
<g>
	<g>
		<g>
			
				<radialGradient id="XMLID_3_" cx="136.3765" cy="288.6099" r="152.9962" gradientTransform="matrix(1 0 0 1 18 -136)" gradientUnits="userSpaceOnUse">
				<stop  offset="0.7022" style="stop-color:#ED1C24"/>
				<stop  offset="0.7095" style="stop-color:#EF4423"/>
				<stop  offset="0.7202" style="stop-color:#F26522"/>
				<stop  offset="0.7311" style="stop-color:#F47B20"/>
				<stop  offset="0.7421" style="stop-color:#F6891F"/>
				<stop  offset="0.753" style="stop-color:#F7911E"/>
				<stop  offset="0.764" style="stop-color:#F7931D"/>
				<stop  offset="0.809" style="stop-color:#FFC20E"/>
				<stop  offset="0.8203" style="stop-color:#F1C219"/>
				<stop  offset="0.842" style="stop-color:#D2C529"/>
				<stop  offset="0.8717" style="stop-color:#98C53C"/>
				<stop  offset="0.8764" style="stop-color:#8CC63F"/>
				<stop  offset="0.9326" style="stop-color:#00ADEF"/>
				<stop  offset="0.9337" style="stop-color:#00AAEC"/>
				<stop  offset="0.9576" style="stop-color:#007CC2"/>
				<stop  offset="0.9768" style="stop-color:#4A58A7"/>
				<stop  offset="0.9903" style="stop-color:#603B97"/>
				<stop  offset="0.997" style="stop-color:#662D91"/>
			</radialGradient>
			<path fill="url(#XMLID_3_)" d="M259.153,119.48l-12.661,3.332c16.713,21.471,25.533,54.527,17.687,88.921
				c26.218-23.416,44.46-61.78,44.069-105.169l-12.889,3.393c-8.163-31.169-26.909-59.336-52.42-78.893
				C217.582,11.299,185.375,0.45,153.282,0.5v37.442C201.674,37.098,247.574,72.533,259.153,119.48z M121.268,255.746l3.444-12.627
				c-26.95,3.732-59.988-5.162-85.851-29.148c7.167,34.41,31.277,69.393,69.042,90.75l3.512-12.859
				c31.074,8.514,64.839,6.361,94.529-5.947c29.799-12.072,55.298-34.547,71.302-62.369l-32.428-18.717
				C221.355,247.158,167.711,269.189,121.268,255.746z M70.304,69.725l9.211,9.296c10.237-25.21,34.461-49.378,68.169-59.779
				c-33.39-10.997-75.738-7.608-113.117,14.417l9.382,9.474C21.039,65.786,6.021,96.101,1.84,127.973
				c-4.441,31.838,2.272,65.162,18.361,92.925l32.422-18.717C27.696,160.695,35.436,103.223,70.304,69.725z"/>
		</g>
		<g>
			<path fill="none" stroke="#000000" d="M259.153,119.48l-12.661,3.332c16.713,21.471,25.533,54.527,17.687,88.921
				c26.218-23.416,44.46-61.78,44.069-105.169l-12.889,3.393c-8.163-31.169-26.909-59.336-52.42-78.893
				C217.582,11.299,185.375,0.45,153.282,0.5v37.442C201.674,37.098,247.574,72.533,259.153,119.48z M121.268,255.746l3.444-12.627
				c-26.95,3.732-59.988-5.162-85.851-29.148c7.167,34.41,31.277,69.393,69.042,90.75l3.512-12.859
				c31.074,8.514,64.839,6.361,94.529-5.947c29.799-12.072,55.298-34.547,71.302-62.369l-32.428-18.717
				C221.355,247.158,167.711,269.189,121.268,255.746z M70.304,69.725l9.211,9.296c10.237-25.21,34.461-49.378,68.169-59.779
				c-33.39-10.997-75.738-7.608-113.117,14.417l9.382,9.474C21.039,65.786,6.021,96.101,1.84,127.973
				c-4.441,31.838,2.272,65.162,18.361,92.925l32.422-18.717C27.696,160.695,35.436,103.223,70.304,69.725z"/>
		</g>
	</g>
</g>
<g>
	<g>
		<g>
			
				<radialGradient id="XMLID_4_" cx="135.8896" cy="270.8149" r="76.3094" gradientTransform="matrix(1 0 0 1 18 -136)" gradientUnits="userSpaceOnUse">
				<stop  offset="0" style="stop-color:#ED1C24"/>
				<stop  offset="0.0192" style="stop-color:#EF4423"/>
				<stop  offset="0.048" style="stop-color:#F26522"/>
				<stop  offset="0.077" style="stop-color:#F47B20"/>
				<stop  offset="0.1061" style="stop-color:#F6891F"/>
				<stop  offset="0.1352" style="stop-color:#F7911E"/>
				<stop  offset="0.1647" style="stop-color:#F7931D"/>
				<stop  offset="0.3054" style="stop-color:#FFC20E"/>
				<stop  offset="0.334" style="stop-color:#F1C219"/>
				<stop  offset="0.389" style="stop-color:#D2C529"/>
				<stop  offset="0.4642" style="stop-color:#98C53C"/>
				<stop  offset="0.476" style="stop-color:#8CC63F"/>
				<stop  offset="0.6257" style="stop-color:#00ADEF"/>
				<stop  offset="0.703" style="stop-color:#0090D5"/>
				<stop  offset="0.7715" style="stop-color:#007AC2"/>
				<stop  offset="0.8054" style="stop-color:#0071BC"/>
				<stop  offset="0.8168" style="stop-color:#006DB8"/>
				<stop  offset="0.8762" style="stop-color:#3657A7"/>
				<stop  offset="0.9281" style="stop-color:#55429A"/>
				<stop  offset="0.9702" style="stop-color:#623393"/>
				<stop  offset="0.997" style="stop-color:#662D91"/>
			</radialGradient>
			<path fill="url(#XMLID_4_)" d="M243.445,189.525l-11.12-1.117c-0.319,0-0.524-0.123-0.615-0.369l-32.683-81.067
				c-0.137-0.207-0.319-0.33-0.545-0.372h-3.48c-0.183,0-0.365,0.125-0.546,0.372l-21.404,48.885l-7.584-0.567
				c-0.456-0.043-0.682-0.249-0.682-0.621V81.963c0-0.414,0.181-0.62,0.546-0.62h22.652c0.454,0,0.682,0.165,0.682,0.495
				l2.799,14.368c0,0.33,0.227,0.495,0.682,0.495h5.186c0.455,0,0.684-0.227,0.684-0.68V76.141c0-0.411-0.229-0.618-0.684-0.618
				h-77.306c-0.455,0-0.683,0.207-0.683,0.618v19.881c0,0.453,0.228,0.68,0.683,0.68h5.186c0.454,0,0.681-0.165,0.681-0.495
				l2.799-14.368c0-0.33,0.226-0.495,0.682-0.495h22.653c0.363,0,0.546,0.206,0.546,0.62v72.705c0,0.088-0.015,0.165-0.041,0.234
				h-34.5c-0.546,0-0.819,0.25-0.819,0.744v3.035c0,0.539,0.226,0.807,0.682,0.807l11.941,0.991c0.454,0,0.681,0.205,0.681,0.618
				v25.638c-5.914,1.115-10.576,1.672-13.987,1.672c-12.054,0-21.767-4.293-29.135-12.881c-6.778-7.927-10.167-17.505-10.167-28.736
				c0-11.104,3.514-19.891,10.542-26.351c7.026-6.46,16.659-9.692,28.897-9.692c2.5,0,7.753,0.807,15.76,2.416
				c0.41,0.166,0.615,0.371,0.615,0.619l2.797,14.244c0,0.33,0.226,0.493,0.681,0.493h5.459c0.455,0,0.683-0.205,0.683-0.618
				v-19.199c0-0.33-0.228-0.535-0.683-0.619c-2.502-0.41-4.322-0.72-5.459-0.928c-7.732-1.404-14.032-2.107-18.899-2.107
				c-9.325,0-17.991,1.672-25.996,5.018c-8.871,3.717-15.739,9.053-20.607,16.01c-4.867,6.957-7.299,14.874-7.299,23.75
				c0,13.17,4.888,23.886,14.668,32.142c9.553,8.092,21.652,12.139,36.299,12.139c8.461,0,17.558-1.012,27.293-3.035
				c0.455-0.205,0.683-0.436,0.683-0.682v-29.529h28.197l-11.953,27.3c-0.137,0.207-0.32,0.33-0.546,0.371l-11.463,0.992
				c-0.456,0-0.683,0.227-0.683,0.68v3.283c0,0.414,0.228,0.619,0.683,0.619h30.226c0.455,0,0.683-0.205,0.683-0.619v-3.283
				c0-0.412-0.228-0.639-0.683-0.68l-10.507-0.744c-0.683-0.041-0.911-0.33-0.683-0.869l11.054-25.141
				c0.137-0.205,0.318-0.331,0.547-1.372h30.43c0.182,1,0.363,1.125,0.547,1.372l10.371,24.895c0.09,0.248,0.09,0.455,0,0.619
				c-0.091,0.166-0.273,0.248-0.547,0.248l-10.916,0.992c-0.456,0-0.682,0.227-0.682,0.68v3.283c0,0.414,0.226,0.619,0.682,0.619
				h35.891c0.5,0,0.75-0.205,0.75-0.619v-3.283C244.06,189.751,243.855,189.525,243.445,189.525z M205.441,156.072h-25.245
				c-0.684,1,12.555-30.213,12.555-30.213c0.091-0.247,0.271-0.372,0.546-0.372c0.181,0,0.363,0.125,0.545,0.372
				C193.841,125.859,206.167,157.072,205.441,156.072z"/>
		</g>
		<g>
			<path fill="none" stroke="#000000" d="M243.445,189.525l-11.12-1.117c-0.319,0-0.524-0.123-0.615-0.369l-32.683-81.067
				c-0.137-0.207-0.319-0.33-0.545-0.372h-3.48c-0.183,0-0.365,0.125-0.546,0.372l-21.404,48.885l-7.584-0.567
				c-0.456-0.043-0.682-0.249-0.682-0.621V81.963c0-0.414,0.181-0.62,0.546-0.62h22.652c0.454,0,0.682,0.165,0.682,0.495
				l2.799,14.368c0,0.33,0.227,0.495,0.682,0.495h5.186c0.455,0,0.684-0.227,0.684-0.68V76.141c0-0.411-0.229-0.618-0.684-0.618
				h-77.306c-0.455,0-0.683,0.207-0.683,0.618v19.881c0,0.453,0.228,0.68,0.683,0.68h5.186c0.454,0,0.681-0.165,0.681-0.495
				l2.799-14.368c0-0.33,0.226-0.495,0.682-0.495h22.653c0.363,0,0.546,0.206,0.546,0.62v72.705c0,0.088-0.015,0.165-0.041,0.234
				h-34.5c-0.546,0-0.819,0.25-0.819,0.744v3.035c0,0.539,0.226,0.807,0.682,0.807l11.941,0.991c0.454,0,0.681,0.205,0.681,0.618
				v25.638c-5.914,1.115-10.576,1.672-13.987,1.672c-12.054,0-21.767-4.293-29.135-12.881c-6.778-7.927-10.167-17.505-10.167-28.736
				c0-11.104,3.514-19.891,10.542-26.351c7.026-6.46,16.659-9.692,28.897-9.692c2.5,0,7.753,0.807,15.76,2.416
				c0.41,0.166,0.615,0.371,0.615,0.619l2.797,14.244c0,0.33,0.226,0.493,0.681,0.493h5.459c0.455,0,0.683-0.205,0.683-0.618
				v-19.199c0-0.33-0.228-0.535-0.683-0.619c-2.502-0.41-4.322-0.72-5.459-0.928c-7.732-1.404-14.032-2.107-18.899-2.107
				c-9.325,0-17.991,1.672-25.996,5.018c-8.871,3.717-15.739,9.053-20.607,16.01c-4.867,6.957-7.299,14.874-7.299,23.75
				c0,13.17,4.888,23.886,14.668,32.142c9.553,8.092,21.652,12.139,36.299,12.139c8.461,0,17.558-1.012,27.293-3.035
				c0.455-0.205,0.683-0.436,0.683-0.682v-29.529h28.197l-11.953,27.3c-0.137,0.207-0.32,0.33-0.546,0.371l-11.463,0.992
				c-0.456,0-0.683,0.227-0.683,0.68v3.283c0,0.414,0.228,0.619,0.683,0.619h30.226c0.455,0,0.683-0.205,0.683-0.619v-3.283
				c0-0.412-0.228-0.639-0.683-0.68l-10.507-0.744c-0.683-0.041-0.911-0.33-0.683-0.869l11.054-25.141
				c0.137-0.205,0.318-0.331,0.547-1.372h30.43c0.182,1,0.363,1.125,0.547,1.372l10.371,24.895c0.09,0.248,0.09,0.455,0,0.619
				c-0.091,0.166-0.273,0.248-0.547,0.248l-10.916,0.992c-0.456,0-0.682,0.227-0.682,0.68v3.283c0,0.414,0.226,0.619,0.682,0.619
				h35.891c0.5,0,0.75-0.205,0.75-0.619v-3.283C244.06,189.751,243.855,189.525,243.445,189.525z M205.441,156.072h-25.245
				c-0.684,1,12.555-30.213,12.555-30.213c0.091-0.247,0.271-0.372,0.546-0.372c0.181,0,0.363,0.125,0.545,0.372
				C193.841,125.859,206.167,157.072,205.441,156.072z"/>
		</g>
	</g>
</g>
</svg>
