<?xml version="1.0" encoding="UTF-8" standalone="no"?>
<!-- Generator: Adobe Illustrator 12.0.1, SVG Export Plug-In . SVG Version: 6.00 Build 51448)  -->

<svg
   xmlns:osb="http://www.openswatchbook.org/uri/2009/osb"
   xmlns:dc="http://purl.org/dc/elements/1.1/"
   xmlns:cc="http://creativecommons.org/ns#"
   xmlns:rdf="http://www.w3.org/1999/02/22-rdf-syntax-ns#"
   xmlns:svg="http://www.w3.org/2000/svg"
   xmlns="http://www.w3.org/2000/svg"
   xmlns:xlink="http://www.w3.org/1999/xlink"
   xmlns:sodipodi="http://sodipodi.sourceforge.net/DTD/sodipodi-0.dtd"
   xmlns:inkscape="http://www.inkscape.org/namespaces/inkscape"
   version="1.1"
   id="Layer_1"
   width="600"
   height="500"
   viewBox="0 0 600.00001 500"
   overflow="visible"
   enable-background="new 0 0 1338.954 851.394"
   xml:space="preserve"
   inkscape:version="0.48.5 r10040"
   sodipodi:docname="Mac_OSX_dmg_background.svg"
   style="overflow:visible"
   inkscape:export-filename="/home/jsg210/src/Glotaran/glotaran/application/installer/graphics/Mac_OSX_dmg_background.png"
   inkscape:export-xdpi="72"
   inkscape:export-ydpi="72"><metadata
     id="metadata1623"><rdf:RDF><cc:Work
         rdf:about=""><dc:format>image/svg+xml</dc:format><dc:type
           rdf:resource="http://purl.org/dc/dcmitype/StillImage" /><dc:title /></cc:Work></rdf:RDF></metadata><defs
     id="defs1621"><marker
       inkscape:stockid="DotL"
       orient="auto"
       refY="0.0"
       refX="0.0"
       id="DotL"
       style="overflow:visible"><path
         id="path3906"
         d="M -2.5,-1.0 C -2.5,1.7600000 -4.7400000,4.0 -7.5,4.0 C -10.260000,4.0 -12.5,1.7600000 -12.5,-1.0 C -12.5,-3.7600000 -10.260000,-6.0 -7.5,-6.0 C -4.7400000,-6.0 -2.5,-3.7600000 -2.5,-1.0 z "
         style="fill-rule:evenodd;stroke:#000000;stroke-width:1.0pt"
         transform="scale(0.8) translate(7.4, 1)" /></marker><marker
       inkscape:stockid="RazorWire"
       id="RazorWire"
       refX="0"
       refY="0"
       orient="auto"
       style="overflow:visible"><path
         id="path4077"
         transform="scale(0.8,0.8)"
         style="fill:#808080;fill-opacity:1;fill-rule:evenodd;stroke:#000000;stroke-width:0.1pt"
         d="M 0.022727273,-0.74009011 L 0.022727273,0.69740989 L -7.7585227,3.0099099 L 10.678977,3.0099099 L 3.4914773,0.69740989 L 3.4914773,-0.74009011 L 10.741477,-2.8963401 L -7.7272727,-2.8963401 L 0.022727273,-0.74009011 z " /></marker><marker
       inkscape:stockid="EmptyTriangleInS"
       orient="auto"
       refY="0.0"
       refX="0.0"
       id="EmptyTriangleInS"
       style="overflow:visible"><path
         id="path4002"
         d="M 5.77,0.0 L -2.88,5.0 L -2.88,-5.0 L 5.77,0.0 z "
         style="fill-rule:evenodd;fill:#FFFFFF;stroke:#000000;stroke-width:1.0pt"
         transform="scale(-0.2) translate(-3.0,0)" /></marker><marker
       inkscape:stockid="Arrow1Send"
       orient="auto"
       refY="0.0"
       refX="0.0"
       id="Arrow1Send"
       style="overflow:visible;"><path
         id="path3860"
         d="M 0.0,0.0 L 5.0,-5.0 L -12.5,0.0 L 5.0,5.0 L 0.0,0.0 z "
         style="fill-rule:evenodd;stroke:#000000;stroke-width:1.0pt;"
         transform="scale(0.2) rotate(180) translate(6,0)" /></marker><marker
       style="overflow:visible"
       inkscape:stockid="InfiniteLineStart"
       id="InfiniteLineStart"
       refX="0"
       refY="0"
       orient="auto"><g
         id="g4089"
         style="fill:#000000"
         transform="translate(-13,0)"><circle
           d="M 3.8,0 C 3.8,0.44182781 3.4418278,0.80000001 3,0.80000001 2.5581722,0.80000001 2.2,0.44182781 2.2,0 c 0,-0.44182781 0.3581722,-0.80000001 0.8,-0.80000001 0.4418278,0 0.8,0.3581722 0.8,0.80000001 z"
           id="circle4091"
           r="0.8"
           cy="0"
           cx="3" /><circle
           d="M 7.3,0 C 7.3,0.44182781 6.9418278,0.80000001 6.5,0.80000001 6.0581722,0.80000001 5.7,0.44182781 5.7,0 c 0,-0.44182781 0.3581722,-0.80000001 0.8,-0.80000001 0.4418278,0 0.8,0.3581722 0.8,0.80000001 z"
           id="circle4093"
           r="0.8"
           cy="0"
           cx="6.5" /><circle
           d="M 10.8,0 C 10.8,0.44182781 10.441828,0.80000001 10,0.80000001 9.5581722,0.80000001 9.2,0.44182781 9.2,0 c 0,-0.44182781 0.3581722,-0.80000001 0.8,-0.80000001 0.441828,0 0.8,0.3581722 0.8,0.80000001 z"
           id="circle4095"
           r="0.8"
           cy="0"
           cx="10" /></g></marker><marker
       inkscape:stockid="StopM"
       orient="auto"
       refY="0.0"
       refX="0.0"
       id="StopM"
       style="overflow:visible"><path
         id="path4017"
         d="M 0.0,5.65 L 0.0,-5.65"
         style="fill:none;fill-opacity:0.75000000;fill-rule:evenodd;stroke:#000000;stroke-width:1.0pt"
         transform="scale(0.4)" /></marker><marker
       inkscape:stockid="EmptyDiamondLend"
       orient="auto"
       refY="0.0"
       refX="0.0"
       id="EmptyDiamondLend"
       style="overflow:visible"><path
         id="path3969"
         d="M 0,-7.0710768 L -7.0710894,0 L 0,7.0710589 L 7.0710462,0 L 0,-7.0710768 z "
         style="fill-rule:evenodd;fill:#FFFFFF;stroke:#000000;stroke-width:1.0pt"
         transform="scale(0.8) translate(-7,0)" /></marker><marker
       inkscape:stockid="Tail"
       orient="auto"
       refY="0.0"
       refX="0.0"
       id="Tail"
       style="overflow:visible"><g
         id="g3881"
         transform="scale(-1.2)"><path
           id="path3883"
           d="M -3.8048674,-3.9585227 L 0.54352094,0"
           style="fill:none;fill-rule:evenodd;stroke:#000000;stroke-width:0.8;stroke-linecap:round" /><path
           id="path3885"
           d="M -1.2866832,-3.9585227 L 3.0617053,0"
           style="fill:none;fill-rule:evenodd;stroke:#000000;stroke-width:0.8;stroke-linecap:round" /><path
           id="path3887"
           d="M 1.3053582,-3.9585227 L 5.6537466,0"
           style="fill:none;fill-rule:evenodd;stroke:#000000;stroke-width:0.8;stroke-linecap:round" /><path
           id="path3889"
           d="M -3.8048674,4.1775838 L 0.54352094,0.21974226"
           style="fill:none;fill-rule:evenodd;stroke:#000000;stroke-width:0.8;stroke-linecap:round" /><path
           id="path3891"
           d="M -1.2866832,4.1775838 L 3.0617053,0.21974226"
           style="fill:none;fill-rule:evenodd;stroke:#000000;stroke-width:0.8;stroke-linecap:round" /><path
           id="path3893"
           d="M 1.3053582,4.1775838 L 5.6537466,0.21974226"
           style="fill:none;fill-rule:evenodd;stroke:#000000;stroke-width:0.8;stroke-linecap:round" /></g></marker><marker
       inkscape:stockid="TriangleOutL"
       orient="auto"
       refY="0.0"
       refX="0.0"
       id="TriangleOutL"
       style="overflow:visible"><path
         id="path3987"
         d="M 5.77,0.0 L -2.88,5.0 L -2.88,-5.0 L 5.77,0.0 z "
         style="fill-rule:evenodd;stroke:#000000;stroke-width:1.0pt"
         transform="scale(0.8)" /></marker><marker
       inkscape:stockid="Arrow2Mend"
       orient="auto"
       refY="0.0"
       refX="0.0"
       id="Arrow2Mend"
       style="overflow:visible;"><path
         id="path3872"
         style="fill-rule:evenodd;stroke-width:0.62500000;stroke-linejoin:round;"
         d="M 8.7185878,4.0337352 L -2.2072895,0.016013256 L 8.7185884,-4.0017078 C 6.9730900,-1.6296469 6.9831476,1.6157441 8.7185878,4.0337352 z "
         transform="scale(0.6) rotate(180) translate(0,0)" /></marker><marker
       inkscape:stockid="Arrow1Lend"
       orient="auto"
       refY="0.0"
       refX="0.0"
       id="Arrow1Lend"
       style="overflow:visible;"><path
         id="path3848"
         d="M 0.0,0.0 L 5.0,-5.0 L -12.5,0.0 L 5.0,5.0 L 0.0,0.0 z "
         style="fill-rule:evenodd;stroke:#000000;stroke-width:1.0pt;"
         transform="scale(0.8) rotate(180) translate(12.5,0)" /></marker><linearGradient
       id="linearGradient7173"><stop
         style="stop-color:#ffffff;stop-opacity:0;"
         offset="0"
         id="stop7175" /><stop
         id="stop7179"
         offset="1"
         style="stop-color:#38d5f0;stop-opacity:0.12605043;" /></linearGradient><linearGradient
       id="linearGradient5719"
       osb:paint="solid"><stop
         style="stop-color:#000000;stop-opacity:1;"
         offset="0"
         id="stop5721" /></linearGradient><radialGradient
       inkscape:collect="always"
       xlink:href="#linearGradient7173"
       id="radialGradient7165"
       cx="300.43442"
       cy="250.10117"
       fx="300.43442"
       fy="250.10117"
       r="300.22702"
       gradientTransform="matrix(1,0,0,0.83025763,0,42.452765)"
       gradientUnits="userSpaceOnUse" /></defs><sodipodi:namedview
     pagecolor="#ffffff"
     bordercolor="#666666"
     borderopacity="1"
     objecttolerance="10"
     gridtolerance="10"
     guidetolerance="10"
     inkscape:pageopacity="0"
     inkscape:pageshadow="2"
     inkscape:window-width="1920"
     inkscape:window-height="1144"
     id="namedview1619"
     showgrid="false"
     units="px"
     inkscape:zoom="0.97090715"
     inkscape:cx="486.08023"
     inkscape:cy="257.27772"
     inkscape:window-x="-3"
     inkscape:window-y="-3"
     inkscape:window-maximized="1"
     inkscape:current-layer="Layer_1" /><rect
     x="0.5"
     y="1.127996"
     width="599.86884"
     height="497.94635"
     id="rect185"
     style="fill:url(#radialGradient7165);stroke:#ffffff;stroke-width:0.58517485999999996;fill-opacity:1.0" /><path
     style="opacity:0.10000000000000001;fill:none;stroke:#000000;stroke-width:12.0000002;stroke-linecap:butt;stroke-linejoin:round;stroke-miterlimit:4;stroke-opacity:1;stroke-dasharray:none;marker-start:url(#DotL);marker-mid:none;marker-end:url(#Arrow2Mend);stroke-dashoffset:0"
     d="m 145.7898,286.49768 247.27871,0"
     id="path3071"
     inkscape:connector-curvature="0" /><g
     id="g3"
     transform="matrix(0.47679888,0,0,0.47679888,-158.44513,120.08459)"><g
       id="g5"><g
         id="g7"><radialGradient
           id="XMLID_27_"
           cx="739.7251"
           cy="595.2915"
           r="226.9232"
           gradientTransform="matrix(0.8393,0.5437,-0.5437,0.8393,335.6918,-539.7323)"
           gradientUnits="userSpaceOnUse"><stop
             offset="0.7022"
             style="stop-color:#ED1C24"
             id="stop10" /><stop
             offset="0.7095"
             style="stop-color:#EF4423"
             id="stop12" /><stop
             offset="0.7202"
             style="stop-color:#F26522"
             id="stop14" /><stop
             offset="0.7311"
             style="stop-color:#F47B20"
             id="stop16" /><stop
             offset="0.7421"
             style="stop-color:#F6891F"
             id="stop18" /><stop
             offset="0.753"
             style="stop-color:#F7911E"
             id="stop20" /><stop
             offset="0.764"
             style="stop-color:#F7931D"
             id="stop22" /><stop
             offset="0.809"
             style="stop-color:#FFC20E"
             id="stop24" /><stop
             offset="0.8203"
             style="stop-color:#F1C219"
             id="stop26" /><stop
             offset="0.842"
             style="stop-color:#D2C529"
             id="stop28" /><stop
             offset="0.8717"
             style="stop-color:#98C53C"
             id="stop30" /><stop
             offset="0.8764"
             style="stop-color:#8CC63F"
             id="stop32" /><stop
             offset="0.9326"
             style="stop-color:#00ADEF"
             id="stop34" /><stop
             offset="0.9337"
             style="stop-color:#00AAEC"
             id="stop36" /><stop
             offset="0.9576"
             style="stop-color:#007CC2"
             id="stop38" /><stop
             offset="0.9768"
             style="stop-color:#4A58A7"
             id="stop40" /><stop
             offset="0.9903"
             style="stop-color:#603B97"
             id="stop42" /><stop
             offset="0.997"
             style="stop-color:#662D91"
             id="stop44" /></radialGradient><path
           d="m 842.784,422.672 c 14.971,-45.384 14.348,-95.565 -1.638,-140.481 -15.628,-45.053 -46.974,-84.528 -86.964,-110.346 l -30.193,46.611 c 60.922,37.971 89.484,119.096 66.043,186.876 l -18.447,-6.061 c 3.49,40.203 -12.186,88.467 -49.688,124.955 51.52,-8.006 105.166,-41.055 139.666,-95.384 l -18.779,-6.17 z m -334.283,41.104 14.471,-12.942 c -36.56,-17.084 -70.516,-54.798 -83.369,-105.514 -18.826,48.615 -17.021,111.606 12.769,168.646 l 14.742,-13.176 c 31.817,35.656 75.585,60.203 122.472,68.822 46.831,9 96.698,1.586 139.055,-20.145 l -25.274,-49.449 c -63.344,33.774 -147.89,17.943 -194.866,-36.242 z m 86.562,-272.668 3.972,19 c 33.072,-23.128 82.716,-33.68 133.066,-19.446 -32.697,-40.615 -88.148,-70.546 -152.44,-73.268 l 4.04,19.359 c -46.789,9.726 -89.929,35.353 -120.836,71.658 -31.201,36.054 -49.717,82.95 -52.076,130.486 l 55.454,2.845 c 2.422,-71.746 58.402,-137.052 128.82,-150.634 z"
           id="path46"
           inkscape:connector-curvature="0"
           style="fill:url(#XMLID_27_)" /></g><g
         id="g48"><path
           d="m 842.784,422.672 c 14.971,-45.384 14.348,-95.565 -1.638,-140.481 -15.628,-45.053 -46.974,-84.528 -86.964,-110.346 l -30.193,46.611 c 60.922,37.971 89.484,119.096 66.043,186.876 l -18.447,-6.061 c 3.49,40.203 -12.186,88.467 -49.688,124.955 51.52,-8.006 105.166,-41.055 139.666,-95.384 l -18.779,-6.17 z m -334.283,41.104 14.471,-12.942 c -36.56,-17.084 -70.516,-54.798 -83.369,-105.514 -18.826,48.615 -17.021,111.606 12.769,168.646 l 14.742,-13.176 c 31.817,35.656 75.585,60.203 122.472,68.822 46.831,9 96.698,1.586 139.055,-20.145 l -25.274,-49.449 c -63.344,33.774 -147.89,17.943 -194.866,-36.242 z m 86.562,-272.668 3.972,19 c 33.072,-23.128 82.716,-33.68 133.066,-19.446 -32.697,-40.615 -88.148,-70.546 -152.44,-73.268 l 4.04,19.359 c -46.789,9.726 -89.929,35.353 -120.836,71.658 -31.201,36.054 -49.717,82.95 -52.076,130.486 l 55.454,2.845 c 2.422,-71.746 58.402,-137.052 128.82,-150.634 z"
           id="path50"
           inkscape:connector-curvature="0"
           style="fill:none;stroke:#000000;stroke-width:2" /></g></g></g><rect
     x="0.22307672"
     y="100.37103"
     width="596.93231"
     height="396.08984"
     id="rect183"
     style="fill:none;stroke:#ffffff;stroke-width:0.45585728" /><text
     sodipodi:linespacing="125%"
     id="text5368"
     y="459.021"
     x="11.366589"
     style="font-size:12px;font-style:normal;font-weight:normal;line-height:125%;letter-spacing:0px;word-spacing:0px;fill:#000000;fill-opacity:1;stroke:none;font-family:Sans"
     xml:space="preserve"><tspan
       style="font-size:14px;font-style:normal;font-variant:normal;font-weight:normal;font-stretch:normal;text-align:start;text-anchor:start;font-family:Sans;-inkscape-font-specification:Adobe Times"
       y="459.021"
       x="11.366589"
       id="tspan5370"
       sodipodi:role="line">Glotaran is free software: you can redistribute it and/or modifiy it under the terms of the GNU </tspan><tspan
       id="tspan5372"
       style="font-size:14px;font-style:normal;font-variant:normal;font-weight:normal;font-stretch:normal;text-align:start;text-anchor:start;font-family:Sans;-inkscape-font-specification:Adobe Times"
       y="476.521"
       x="11.366589"
       sodipodi:role="line">General Public License as published by the Free Software Foundation, either version 2 of the</tspan><tspan
       id="tspan5374"
       style="font-size:14px;font-style:normal;font-variant:normal;font-weight:normal;font-stretch:normal;text-align:start;text-anchor:start;font-family:Sans;-inkscape-font-specification:Adobe Times"
       y="494.021"
       x="11.366589"
       sodipodi:role="line">license, or (at your option) any later version. For more info please visit: http://glotaran.org</tspan></text>
<text
     xml:space="preserve"
     style="font-size:12px;font-style:normal;font-weight:normal;line-height:125%;letter-spacing:0px;word-spacing:0px;fill:#000000;fill-opacity:1;stroke:none;font-family:Sans"
     x="294.03693"
     y="139.51239"
     id="text5642"
     sodipodi:linespacing="125%"><tspan
       sodipodi:role="line"
       id="tspan5644"
       x="294.03693"
       y="139.51239"
       style="font-size:16px;text-align:center;text-anchor:middle"><tspan
         style="fill:#666666"
         id="tspan5685">To install, drag</tspan><tspan
         style="font-weight:bold;fill:#4d4d4d"
         id="tspan5648"> Glotaran</tspan></tspan><tspan
       sodipodi:role="line"
       x="294.03693"
       y="159.51239"
       id="tspan5646"
       style="font-size:16px;text-align:center;text-anchor:middle"><tspan
         style="fill:#666666"
         id="tspan5687">to the</tspan><tspan
         style="font-weight:bold;fill:#4d4d4d"
         id="tspan5650"> Applications</tspan><tspan
         style="fill:#666666"
         id="tspan5689"> folder</tspan></tspan></text>
<text
     xml:space="preserve"
     style="font-size:12px;font-style:normal;font-weight:normal;line-height:125%;letter-spacing:0px;word-spacing:0px;fill:#000000;fill-opacity:1;stroke:none;overflow:visible;font-family:Sans"
     x="299.47751"
     y="420.08865"
     id="text5642-6"
     sodipodi:linespacing="125%"><tspan
       sodipodi:role="line"
       x="299.47751"
       y="420.08865"
       id="tspan5646-7"
       style="font-size:16px;text-align:center;text-anchor:middle;fill:#000000;fill-opacity:0.54736843">You may then eject this disk image as it is no longer required.</tspan></text>
<text
     xml:space="preserve"
     style="font-size:12px;font-style:normal;font-weight:normal;line-height:125%;letter-spacing:0px;word-spacing:0px;fill:#d52323;fill-opacity:1;stroke:none;font-family:Sans"
     x="288.18787"
     y="55.05529"
     id="text5697"
     sodipodi:linespacing="125%"><tspan
       sodipodi:role="line"
       id="tspan5699"
       x="288.18787"
       y="55.05529"
       style="font-size:56px;font-style:normal;font-variant:normal;font-weight:bold;font-stretch:normal;text-align:center;text-anchor:middle;fill:#d52323;fill-opacity:1;font-family:Arial;-inkscape-font-specification:Arial Bold">Glotaran</tspan><tspan
       sodipodi:role="line"
       x="288.18787"
       y="83.724083"
       style="font-size:14px;font-style:normal;font-variant:normal;font-weight:bold;font-stretch:normal;text-align:center;text-anchor:middle;fill:#d52323;fill-opacity:1;font-family:Arial;-inkscape-font-specification:Arial Bold"
       id="tspan5701">a tool for Global and Target Analysis</tspan><tspan
       sodipodi:role="line"
       x="288.18787"
       y="101.22408"
       style="font-size:14px;font-style:normal;font-variant:normal;font-weight:bold;font-stretch:normal;text-align:center;text-anchor:middle;fill:#d52323;fill-opacity:1;font-family:Arial;-inkscape-font-specification:Arial Bold"
       id="tspan5703" /></text>
</svg>